<svg width="1440" height="258" viewBox="0 0 1440 258" fill="none" xmlns="http://www.w3.org/2000/svg">
<path fill-rule="evenodd" clip-rule="evenodd" d="M-12 258V47.3101L-6.58362 43.9363C-6.58362 43.9363 -6.5835 43.9363 -3.85486 42.8225C-1.14575 41.7093 0.217773 40.5625 0.217773 40.5625C0.217773 40.5625 0.217773 40.5625 2.92688 41.7093C5.63428 42.8225 5.63428 41.7093 10.3992 42.8225L14.4718 41.7093C14.4718 41.7093 14.4718 41.7093 16.5081 41.7093C18.5443 41.7093 19.2175 39.4487 19.2175 39.4487H21.9247L28.0334 40.5625C28.0334 40.5625 28.0336 40.5625 30.7622 41.7093C33.4718 42.8225 30.7621 41.7093 32.7983 43.9363C34.8347 46.197 34.8348 49.5701 34.8348 49.5701L40.2512 56.3184L43.6532 60.8053L48.3969 64.1798C48.3969 64.1798 48.3969 64.1798 53.1617 64.1798C57.9072 64.1798 53.1617 64.1798 57.9072 65.3266C62.6509 66.4397 57.9072 65.3266 60.6146 69.8135C61.4902 71.2641 61.7966 71.7705 61.8584 71.9381C61.7543 71.8708 61.2067 71.2641 61.9797 73.1873C63.3428 76.5611 66.7235 73.1873 66.7235 73.1873H71.4884C71.4884 73.1873 71.4885 73.1873 72.1614 76.5611C72.8325 79.9356 75.561 81.0488 75.561 81.0488L89.8152 67.5529L93.1954 63.066L95.924 59.6922L98.6331 54.0577H111.522C111.522 54.0577 111.522 54.0577 114.924 52.9446C118.323 51.8307 114.924 52.9446 119.668 45.0831L123.069 42.8225L125.777 41.7093L129.178 36.0749L135.958 32.7011C135.958 32.7011 142.759 29.3273 144.796 30.4411C146.832 31.588 149.541 29.3273 149.541 29.3273L155.65 21.4659H163.795C163.795 21.4659 167.867 21.4659 169.904 21.4659C171.94 21.4659 173.304 20.3191 173.304 20.3191L178.049 18.0928L182.795 19.2059L186.867 20.3191C186.867 20.3191 186.867 20.319 189.594 23.6928C192.303 27.0666 194.34 23.6928 194.34 23.6928L197.739 19.2059C197.739 19.2059 197.739 19.2059 199.776 20.3191C200.794 20.8928 201.976 22.0396 202.913 23.0174C203.848 23.9966 204.521 24.8404 204.521 24.8404C204.521 24.8404 204.521 24.8403 207.23 30.4411C209.957 36.0749 207.23 30.4411 208.594 36.0749C208.594 36.0749 211.994 34.9618 214.03 36.0749C216.066 37.1887 219.449 31.588 219.449 31.588C219.449 31.588 219.448 31.588 221.485 32.7011C222.503 33.2412 223.357 34.9281 223.947 36.481C224.539 38.0318 224.884 39.4487 224.884 39.4487C224.884 39.4487 224.884 39.4487 227.594 43.9363C230.322 48.4569 231.666 45.0831 231.666 45.0831L235.739 41.7093C235.739 41.7093 235.739 41.7093 237.775 42.8225C239.811 43.9363 241.174 42.8225 244.576 45.0831H247.284L253.393 41.7093C253.393 41.7093 257.465 40.5625 260.867 40.5625C264.247 40.5625 260.867 40.5625 262.903 42.8225C264.939 45.0831 266.976 42.8225 266.976 42.8225H270.356L272.392 38.3355L274.428 33.8149C274.428 33.8149 274.428 33.8149 277.157 32.7011C279.865 31.588 277.157 32.7011 280.537 32.7011C283.937 32.7011 283.266 25.9535 283.266 25.9535C283.266 25.9535 283.266 25.9535 285.302 24.8404C287.339 23.6929 288.683 27.0667 288.683 27.0667L292.082 28.2142L294.791 30.4411C294.791 30.4411 294.791 30.4411 296.828 32.7011C298.864 34.9617 297.52 37.1887 297.52 37.1887L302.264 38.3355L307.01 39.4487L311.774 40.5625C311.774 40.5625 311.775 40.5625 314.482 41.7093C317.191 42.8225 315.847 46.197 315.847 46.197C315.847 46.197 315.847 46.197 316.518 49.5701C317.191 52.9446 321.264 50.6839 321.264 50.6839L321.956 46.197L326.7 45.0831L329.409 43.9363L334.845 38.3355C334.845 38.3355 334.845 38.3356 336.881 39.4487C338.917 40.5625 340.282 38.3355 340.282 38.3355L343.663 31.588C343.663 31.588 349.772 30.4411 353.845 30.4411C357.917 30.4411 353.845 30.4411 357.917 30.4411L358.61 25.9535L370.377 62.8729C370.377 62.8729 373.105 62.8729 375.142 62.8729C377.178 62.8729 377.849 62.8729 377.849 62.8729H381.251C381.251 62.8729 381.25 62.8729 383.287 62.8729C385.323 62.8729 386.667 63.9867 388.703 63.9867C390.74 63.9867 391.432 68.5073 391.432 68.5073C391.432 68.5073 391.432 68.5073 393.468 68.5073C395.505 68.5073 395.954 50.9711 395.954 50.9711L400.25 68.5073L404.994 63.9867L411.103 58.3859L413.102 55.9143C413.585 55.3165 414.123 54.85 414.695 54.5325L417.026 53.2387C417.607 52.9157 418.217 52.7515 418.83 52.7515H425.357C425.357 52.7515 425.357 52.7515 428.085 52.7515C430.795 52.7515 431.466 50.4908 431.466 50.4908L434.464 47.1878C435.171 46.4079 435.975 45.9015 436.816 45.705L440.303 44.89L444.211 43.7893C444.321 43.759 444.432 43.7329 444.542 43.713L450.175 42.6864C450.382 42.6486 450.589 42.6301 450.797 42.6301H453.864C454.325 42.6301 454.784 42.5367 455.231 42.3532L456.19 41.9595C456.901 41.6667 457.572 41.1493 458.164 40.4347L463.245 34.3097C464.216 33.1388 465.386 32.508 466.587 32.508H467.449H469.545C469.979 32.508 470.401 32.4276 470.824 32.2675C471.98 31.8284 474.469 30.7888 476.957 29.1342C480.337 26.8743 476.957 29.1342 481.703 28.0211C483.291 27.6507 483.82 27.5146 483.881 27.5146C483.656 27.615 482.557 28.0211 483.739 28.0211L490.909 29.0896C491.111 29.1198 491.31 29.1672 491.508 29.2325L493.487 29.8839C494.216 30.1244 494.967 30.125 495.696 29.8866C497.167 29.4049 498.694 29.9066 499.943 31.2829L501.578 33.0852C501.902 33.4418 502.248 33.7428 502.609 33.9826L502.641 34.0046C504.405 35.1775 505.698 37.735 506.086 40.8181L509.296 73.1111C509.296 73.1111 512.676 71.9979 515.405 71.9979C518.114 71.9979 515.405 71.9979 518.785 73.1111L528.967 56.2421H533.732L536.441 51.7552L539.148 48.3807L543.913 43.86L551.366 41.6331C551.366 41.6331 551.366 41.6331 556.131 41.6331C560.876 41.6331 556.131 41.6331 558.167 43.86C560.204 46.1207 558.167 43.86 561.548 49.4945L563.584 43.86L566.312 41.6331L568.349 35.9986C568.349 35.9986 568.349 35.9986 570.385 34.8834C572.421 33.7387 573.765 33.7387 577.838 34.8834H580.567L584.639 35.9986L587.349 34.8834L590.748 30.3649L594.13 29.251L598.203 31.5103L600.93 34.8834L604.312 31.5103L608.384 26.9904L613.148 21.3882L617.22 20.2428C617.22 20.2428 617.22 20.2428 619.256 20.2428C621.293 20.2428 624.675 24.762 624.675 24.762L627.404 25.8772C627.404 25.8772 627.404 25.8772 629.44 26.9904C631.476 28.1358 632.82 25.8772 632.82 25.8772L634.183 21.3882L634.857 16.869L638.256 13.4952L643.002 14.6406C643.002 14.6406 643.002 14.6406 645.038 15.7558C647.074 16.869 648.438 19.1296 648.438 19.1296L651.147 24.762L653.876 28.1358L656.583 26.9904V22.5034L657.948 18.0144L663.365 12.382C663.365 12.382 663.365 12.382 666.093 12.382C668.801 12.382 669.474 11.2668 669.474 11.2668H672.873L675.583 10.1214C675.583 10.1214 675.583 10.1214 677.619 11.2668C679.655 12.382 682.384 10.1214 682.384 10.1214C682.384 10.1214 684.42 5.63445 687.801 4.51923C687.801 4.51923 690.529 4.51923 693.236 4.51923C695.946 4.51923 700.018 2.25996 700.018 2.25996C700.018 2.25996 703.418 0 706.127 0C708.856 0 709.527 3.37379 709.527 3.37379C709.527 3.37379 709.527 3.37379 713.6 3.37379C717.672 3.37379 713.6 3.37379 716.309 4.51923C719.037 5.63445 721.074 1.14545 721.074 1.14545C721.074 1.14545 721.074 1.14545 723.11 2.25996C725.146 3.37379 726.49 3.37379 726.49 3.37379L729.89 5.63445L733.963 6.7476L736.672 9.00757L739.4 12.382L742.109 14.6406L744.817 19.1296L748.217 23.6173C748.217 23.6173 753.655 24.762 755.691 25.8772C757.727 26.9904 759.071 24.762 759.071 24.762H766.544C766.544 24.762 766.545 24.762 768.58 25.8772C770.617 26.9904 773.325 26.9904 773.325 26.9904L777.398 28.1358C777.398 28.1358 777.398 28.1358 779.434 30.3649C781.471 32.6248 780.799 34.8834 780.799 34.8834L784.199 39.3724L786.907 41.6331L790.308 42.7462L796.417 47.2338L806.598 50.6077C806.598 50.6077 806.598 50.6077 809.307 51.7552C812.015 52.8683 816.088 55.1283 816.088 55.1283L822.197 57.3553H827.634L834.415 56.2421C834.415 56.2421 834.415 56.2421 836.451 57.3553C838.487 58.5027 839.18 53.9814 839.18 53.9814H841.888C841.888 53.9814 841.888 53.9815 843.924 55.1283C845.96 56.2421 845.96 61.8765 845.96 61.8765L848.669 66.3635L852.069 67.4773C852.069 67.4773 852.069 67.4773 854.106 66.3635C856.142 65.2503 856.814 61.8765 856.814 61.8765C856.814 61.8765 856.814 61.8765 860.214 61.8765C863.615 61.8765 863.615 61.8765 863.615 61.8765L866.995 60.729C866.995 60.729 866.995 60.729 870.396 59.6159L873.797 56.2421C873.797 56.2421 873.797 56.2421 877.177 58.5027C880.577 60.729 877.177 58.5027 880.577 64.1035L884.65 62.9897H888.723L896.196 64.1035L898.904 66.3635L905.013 67.4773L907.722 66.3635C907.722 66.3635 907.722 66.3635 909.759 66.3635C911.795 66.3635 912.487 64.1035 915.195 65.2503C916.091 65.6207 917.007 65.7554 917.801 65.7554C919.41 65.7554 920.632 65.2503 920.632 65.2503C920.632 65.2503 920.632 65.2503 922.668 68.6241C924.704 71.9979 926.741 67.4773 926.741 67.4773L930.122 64.1035L934.886 60.729C934.886 60.729 937.595 59.6159 940.995 62.9897L944.376 68.6241H947.104L950.485 61.8765L956.594 60.729C956.594 60.729 956.594 60.729 958.63 61.8765C960.667 62.9897 962.703 64.1035 962.703 64.1035L965.431 66.3635L968.812 67.4773L972.212 68.6241C972.212 68.6241 972.212 68.6241 976.285 69.7373C976.285 69.7373 983.758 68.6241 986.466 69.7373C989.175 70.8511 986.466 69.7373 987.831 69.7373C989.175 69.7373 987.831 69.7373 992.575 69.7373H999.356L1002.76 67.4773L1007.5 64.1035C1007.5 64.1035 1007.5 64.1035 1010.23 65.2503C1012.94 66.3635 1012.94 66.3635 1012.94 66.3635L1015.65 62.9897L1017.01 58.5027L1020.41 53.9814L1024.48 49.4945L1026.52 43.86L1030.59 39.3724L1033.97 37.1124L1036.7 35.9986L1038.05 31.5103V26.9904L1040.77 23.6173L1044.85 24.762H1049.59L1052.99 28.1358C1052.99 28.1358 1052.99 28.1358 1055.03 30.3649C1057.07 32.6248 1060.45 34.8834 1060.45 34.8834L1064.52 31.5103L1067.92 28.1358L1072.66 23.6173L1076.74 22.5034L1080.14 23.6173L1084.21 22.5034C1084.21 22.5034 1084.21 22.5034 1088.28 25.8772C1088.3 25.8772 1088.3 25.9095 1088.32 25.9095C1088.32 25.9095 1088.34 25.9095 1088.38 25.9446C1088.57 26.0449 1089.06 26.2812 1090.32 26.9904C1092.35 28.1358 1093.72 29.251 1093.72 29.251H1101.86L1103.9 35.9986C1103.9 35.9986 1103.9 35.9986 1108.64 38.2593C1111.01 39.3724 1110.6 59.229 1111.37 60.0728C1112.12 60.9159 1112.31 61.4897 1112.31 61.4897C1112.31 61.4897 1112.31 61.4897 1117.05 63.7504C1121.8 65.9766 1117.05 63.7504 1119.09 63.7504C1121.12 63.7504 1121.8 63.7504 1121.8 63.7504C1121.8 63.7504 1121.8 63.7504 1125.87 63.7504H1127.78C1127.78 63.7504 1128.01 63.7504 1129.27 63.7504H1136.05L1141.57 81.4473L1144.96 78.0735C1144.96 78.0735 1144.96 78.0735 1146.99 78.0735C1149.03 78.0735 1149.72 78.0735 1149.72 78.0735C1149.72 78.0735 1149.72 78.0735 1151.76 80.3342C1153.79 82.5948 1155.14 84.8211 1155.14 84.8211C1155.14 84.8211 1155.14 84.8211 1157.17 84.8211C1159.21 84.8211 1160.57 80.3342 1160.57 80.3342L1163.97 73.5866L1166.68 72.4714L1168.72 66.839L1172.79 61.2045H1177.54C1177.54 61.2045 1184.66 90.0515 1188.06 90.0515L1193.5 83.3039C1193.5 83.3039 1193.5 83.3039 1195.53 83.3039C1196.55 83.3039 1197.57 83.5754 1198.32 83.877C1199.1 84.147 1199.61 84.4185 1199.61 84.4185C1199.61 84.4185 1199.61 84.4185 1201.64 85.5323C1203.68 86.6777 1204.35 88.9061 1204.35 88.9061L1207.06 86.6777L1210.46 82.1585V76.5563L1211.04 74.642C1211.52 73.0458 1212.51 72.0371 1213.58 72.0371C1214.2 72.0371 1214.8 72.369 1215.29 72.9833L1217.24 75.4109L1222.68 74.2971L1225.39 68.6626L1228.12 66.4349L1231.5 60.8019L1236.26 59.6867L1239.64 60.8019C1243.04 61.915 1239.64 60.8019 1243.71 60.8019L1248.48 57.426H1252.55L1257.97 58.5412L1260.7 54.0522L1262.73 52.9391C1264.77 51.7936 1265.44 52.9391 1265.44 52.9391H1268.84L1272.22 51.7936L1275.62 48.4198L1276.29 41.6722L1279.02 36.0694L1280.37 30.4356C1280.37 30.4356 1280.37 30.4356 1282.4 29.3218C1284.26 28.2774 1287.81 27.2577 1288.42 27.0866C1288.49 27.068 1288.55 27.0474 1288.62 27.0199L1291.24 25.948L1297.35 30.4356L1300.06 32.6963L1302.04 27.2089C1302.08 27.1113 1302.11 27.0103 1302.14 26.9079L1303.46 22.5742L1305.5 16.9398L1309.57 12.4528L1312.95 11.306H1319.75L1323.82 12.4528L1328.06 10.0994C1328.35 9.88708 1329.13 9.36693 1331.27 7.93221L1332.64 2.33073L1335.35 1.1839C1338.08 0.0707703 1338.08 2.33073 1338.08 2.33073L1342.15 3.44456L1344.19 4.55841C1346.22 5.70523 1344.18 4.5584 1348.93 7.9315C1353.68 11.306 1348.93 7.93152 1350.97 11.306C1353 14.6798 1350.97 11.306 1355.71 18.0536L1359.11 19.2004H1362.51L1366.58 18.0536C1366.58 18.0536 1369.29 15.8266 1371.33 15.8266C1373.37 15.8266 1375.4 16.9398 1375.4 16.9398L1378.11 19.2004C1380.84 21.4274 1383.55 19.2004 1383.55 19.2004C1383.55 19.2004 1383.55 19.2004 1385.58 20.3135C1386.93 21.0515 1387.99 21.3003 1388.54 21.3841C1388.86 21.4322 1389.16 21.5586 1389.45 21.7737L1395.09 25.948L1399.17 32.6963L1401.87 34.9246L1406.62 33.8094L1412.33 31.6972C1412.61 31.5928 1412.9 31.5529 1413.19 31.601C1414.11 31.7542 1416.29 32.3795 1418.84 34.9246L1421.57 37.1832H1433.09H1437.86L1441.24 39.4439H1444.64L1447.35 38.2984H1452.11C1454.15 38.2984 1454.82 39.4439 1456.85 39.4439C1458.89 39.4439 1458.22 43.9308 1458.22 43.9308L1465 45.046V258L-12 258Z" fill="#F4F9F6"/>
</svg>
